{
    "asset" : {
        "generator" : "Khronos glTF Blender I/O v1.7.33",
        "version" : "2.0"
    },
    "scene" : 0,
    "scenes" : [
        {
            "name" : "Scene",
            "nodes" : [
                0
            ]
        }
    ],
    "nodes" : [
        {
            "mesh" : 0,
            "name" : "Circle.002",
            "rotation" : [
                0,
                -0.5105665326118469,
                0,
                0.8598382472991943
            ],
            "scale" : [
                2,
                2,
                2
            ]
        }
    ],
    "materials" : [
        {
            "doubleSided" : true,
            "name" : "Material.004",
            "pbrMetallicRoughness" : {}
        },
        {
            "doubleSided" : true,
            "name" : "Material.002",
            "pbrMetallicRoughness" : {}
        }
    ],
    "meshes" : [
        {
            "name" : "Circle.001",
            "primitives" : [
                {
                    "attributes" : {
                        "POSITION" : 0,
                        "NORMAL" : 1,
                        "TEXCOORD_0" : 2
                    },
                    "indices" : 3,
                    "material" : 0
                },
                {
                    "attributes" : {
                        "POSITION" : 4,
                        "NORMAL" : 5,
                        "TEXCOORD_0" : 6
                    },
                    "indices" : 7,
                    "material" : 1
                }
            ]
        }
    ],
    "accessors" : [
        {
            "bufferView" : 0,
            "componentType" : 5126,
            "count" : 330,
            "max" : [
                2.0795931816101074,
                5.9601006507873535,
                2.1022095680236816
            ],
            "min" : [
                -2.0795931816101074,
                0,
                -2.12113881111145
            ],
            "type" : "VEC3"
        },
        {
            "bufferView" : 1,
            "componentType" : 5126,
            "count" : 330,
            "type" : "VEC3"
        },
        {
            "bufferView" : 2,
            "componentType" : 5126,
            "count" : 330,
            "type" : "VEC2"
        },
        {
            "bufferView" : 3,
            "componentType" : 5123,
            "count" : 1680,
            "type" : "SCALAR"
        },
        {
            "bufferView" : 4,
            "componentType" : 5126,
            "count" : 76,
            "max" : [
                1.8739936351776123,
                5.910522937774658,
                1.8934382200241089
            ],
            "min" : [
                -1.8739936351776123,
                3.778931140899658,
                -1.912367343902588
            ],
            "type" : "VEC3"
        },
        {
            "bufferView" : 5,
            "componentType" : 5126,
            "count" : 76,
            "type" : "VEC3"
        },
        {
            "bufferView" : 6,
            "componentType" : 5126,
            "count" : 76,
            "type" : "VEC2"
        },
        {
            "bufferView" : 7,
            "componentType" : 5123,
            "count" : 312,
            "type" : "SCALAR"
        }
    ],
    "bufferViews" : [
        {
            "buffer" : 0,
            "byteLength" : 3960,
            "byteOffset" : 0
        },
        {
            "buffer" : 0,
            "byteLength" : 3960,
            "byteOffset" : 3960
        },
        {
            "buffer" : 0,
            "byteLength" : 2640,
            "byteOffset" : 7920
        },
        {
            "buffer" : 0,
            "byteLength" : 3360,
            "byteOffset" : 10560
        },
        {
            "buffer" : 0,
            "byteLength" : 912,
            "byteOffset" : 13920
        },
        {
            "buffer" : 0,
            "byteLength" : 912,
            "byteOffset" : 14832
        },
        {
            "buffer" : 0,
            "byteLength" : 608,
            "byteOffset" : 15744
        },
        {
            "buffer" : 0,
            "byteLength" : 624,
            "byteOffset" : 16352
        }
    ],
    "buffers" : [
        {
            "byteLength" : 16976,
            "uri" : "data:application/octet-stream;base64,"
        }
    ]
}
